<svg width="41" height="41" viewBox="0 0 41 41" fill="none" xmlns="http://www.w3.org/2000/svg">
<circle cx="20.5" cy="20.5" r="20.5" fill="white"/>
<path d="M21.4158 9.28952L29.928 17.8015C30.171 18.0445 30.3043 18.3684 30.3043 18.7137C30.3043 19.0594 30.1708 19.383 29.928 19.626L29.155 20.3988C28.9124 20.6416 28.5883 20.7754 28.2428 20.7754C27.8975 20.7754 27.5625 20.6416 27.3199 20.3988L22.3432 15.433V31.2096C22.3432 31.9209 21.7864 32.4829 21.0749 32.4829H19.982C19.2705 32.4829 18.6575 31.9209 18.6575 31.2096V15.3767L13.653 20.3986C13.41 20.6414 13.0948 20.7752 12.7493 20.7752C12.4042 20.7752 12.0844 20.6414 11.8416 20.3986L11.0711 19.6258C10.8281 19.3828 10.6957 19.0592 10.6957 18.7135C10.6957 18.3682 10.8298 18.0443 11.0728 17.8013L19.5848 9.28933C19.8285 9.04577 20.1539 8.91183 20.4998 8.91279C20.8468 8.91202 21.1724 9.04577 21.4158 9.28952Z" fill="#002B64"/>
</svg>
