<svg width="37" height="45" viewBox="0 0 37 45" fill="none" xmlns="http://www.w3.org/2000/svg">
<g filter="url(#filter0_d_18_231)">
<path d="M18.2401 16.7417L26.7397 19.8505L20.7057 36.3483L17.9387 31.7295L12.206 33.2395L18.2401 16.7417Z" fill="#E93036"/>
</g>
<g filter="url(#filter1_d_18_231)">
<path d="M18.796 20.5021L27.2957 17.3935L33.3295 33.8914L28.2355 32.1477L24.8297 37L18.796 20.5021Z" fill="#E82F35"/>
</g>
<path d="M21.28 0.780428C22.1741 0.293837 23.2539 0.293838 24.148 0.780428L24.3544 0.89274C24.8891 1.18372 25.4996 1.30516 26.1049 1.24094L26.3386 1.21615C27.3509 1.10877 28.3485 1.52201 28.9884 2.31372L29.136 2.49646C29.5187 2.9699 30.0362 3.31574 30.6201 3.48805L30.8454 3.55456C31.8217 3.84273 32.5853 4.6063 32.8734 5.58261L32.94 5.80795C33.1123 6.39177 33.4581 6.90936 33.9316 7.29198L34.1143 7.43966C34.906 8.0795 35.3192 9.07716 35.2119 10.0894L35.1871 10.3231C35.1229 10.9284 35.2443 11.5389 35.5353 12.0736L35.6476 12.28C36.1342 13.1741 36.1342 14.2539 35.6476 15.148L35.5353 15.3544C35.2443 15.8891 35.1229 16.4996 35.1871 17.1049L35.2119 17.3386C35.3192 18.3509 34.906 19.3485 34.1143 19.9884L33.9316 20.136C33.4581 20.5187 33.1123 21.0362 32.94 21.6201L32.8734 21.8454C32.5853 22.8217 31.8217 23.5853 30.8454 23.8734L30.6201 23.94C30.0362 24.1123 29.5187 24.4581 29.136 24.9316L28.9884 25.1143C28.3485 25.906 27.3509 26.3192 26.3386 26.2119L26.1049 26.1871C25.4996 26.1229 24.8891 26.2443 24.3544 26.5353L24.148 26.6476C23.2539 27.1342 22.1741 27.1342 21.28 26.6476L21.0736 26.5353C20.5389 26.2443 19.9284 26.1229 19.3231 26.1871L19.0894 26.2119C18.0772 26.3192 17.0795 25.906 16.4397 25.1143L16.292 24.9316C15.9094 24.4581 15.3918 24.1123 14.8079 23.94L14.5826 23.8734C13.6063 23.5853 12.8427 22.8217 12.5546 21.8454L12.4881 21.6201C12.3157 21.0362 11.9699 20.5187 11.4965 20.136L11.3137 19.9884C10.522 19.3485 10.1088 18.3509 10.2162 17.3386L10.2409 17.1049C10.3052 16.4996 10.1837 15.8891 9.89274 15.3544L9.78043 15.148C9.29384 14.2539 9.29384 13.1741 9.78043 12.28L9.89274 12.0736C10.1837 11.5389 10.3052 10.9284 10.2409 10.3231L10.2162 10.0894C10.1088 9.07716 10.522 8.0795 11.3137 7.43966L11.4965 7.29198C11.9699 6.90936 12.3157 6.39177 12.4881 5.80795L12.5546 5.5826C12.8427 4.6063 13.6063 3.84273 14.5826 3.55457L14.8079 3.48805C15.3918 3.31574 15.9094 2.9699 16.292 2.49646L16.4397 2.31372C17.0795 1.52201 18.0772 1.10877 19.0894 1.21615L19.3231 1.24094C19.9284 1.30516 20.5389 1.18372 21.0736 0.892739L21.28 0.780428Z" fill="#F3E733"/>
<g filter="url(#filter2_i_18_231)">
<circle cx="22.6248" cy="13.625" r="9.52857" fill="#FBBA28"/>
</g>
<path d="M23.8345 17.8085H22.4233V12.369L20.7388 12.8915V11.744L23.6831 10.6893H23.8345V17.8085Z" fill="#F4F4F4"/>
<defs>
<filter id="filter0_d_18_231" x="0.205963" y="16.7417" width="26.5338" height="27.6066" filterUnits="userSpaceOnUse" color-interpolation-filters="sRGB">
<feFlood flood-opacity="0" result="BackgroundImageFix"/>
<feColorMatrix in="SourceAlpha" type="matrix" values="0 0 0 0 0 0 0 0 0 0 0 0 0 0 0 0 0 0 127 0" result="hardAlpha"/>
<feOffset dx="-8" dy="4"/>
<feGaussianBlur stdDeviation="2"/>
<feComposite in2="hardAlpha" operator="out"/>
<feColorMatrix type="matrix" values="0 0 0 0 0 0 0 0 0 0 0 0 0 0 0 0 0 0 0.25 0"/>
<feBlend mode="normal" in2="BackgroundImageFix" result="effect1_dropShadow_18_231"/>
<feBlend mode="normal" in="SourceGraphic" in2="effect1_dropShadow_18_231" result="shape"/>
</filter>
<filter id="filter1_d_18_231" x="6.79596" y="17.3934" width="26.5335" height="27.6066" filterUnits="userSpaceOnUse" color-interpolation-filters="sRGB">
<feFlood flood-opacity="0" result="BackgroundImageFix"/>
<feColorMatrix in="SourceAlpha" type="matrix" values="0 0 0 0 0 0 0 0 0 0 0 0 0 0 0 0 0 0 127 0" result="hardAlpha"/>
<feOffset dx="-8" dy="4"/>
<feGaussianBlur stdDeviation="2"/>
<feComposite in2="hardAlpha" operator="out"/>
<feColorMatrix type="matrix" values="0 0 0 0 0 0 0 0 0 0 0 0 0 0 0 0 0 0 0.25 0"/>
<feBlend mode="normal" in2="BackgroundImageFix" result="effect1_dropShadow_18_231"/>
<feBlend mode="normal" in="SourceGraphic" in2="effect1_dropShadow_18_231" result="shape"/>
</filter>
<filter id="filter2_i_18_231" x="13.0963" y="4.09644" width="19.0572" height="19.0571" filterUnits="userSpaceOnUse" color-interpolation-filters="sRGB">
<feFlood flood-opacity="0" result="BackgroundImageFix"/>
<feBlend mode="normal" in="SourceGraphic" in2="BackgroundImageFix" result="shape"/>
<feColorMatrix in="SourceAlpha" type="matrix" values="0 0 0 0 0 0 0 0 0 0 0 0 0 0 0 0 0 0 127 0" result="hardAlpha"/>
<feOffset/>
<feGaussianBlur stdDeviation="3"/>
<feComposite in2="hardAlpha" operator="arithmetic" k2="-1" k3="1"/>
<feColorMatrix type="matrix" values="0 0 0 0 0 0 0 0 0 0 0 0 0 0 0 0 0 0 0.25 0"/>
<feBlend mode="normal" in2="shape" result="effect1_innerShadow_18_231"/>
</filter>
</defs>
</svg>
