<svg width="28" height="20" viewBox="0 0 28 20" fill="none" xmlns="http://www.w3.org/2000/svg">
<path d="M27.7534 1.40649L19.2616 9.84364L27.7534 18.2808C27.9069 17.9599 28 17.6052 28 17.2265V2.46082C28 2.08199 27.9069 1.72735 27.7534 1.40649Z" fill="white"/>
<path d="M25.5391 0H2.46096C2.08214 0 1.72749 0.093133 1.40664 0.246641L12.2601 11.0454C13.2198 12.0051 14.7803 12.0051 15.74 11.0454L26.5934 0.246641C26.2726 0.093133 25.9179 0 25.5391 0Z" fill="white"/>
<path d="M0.246641 1.40649C0.0931329 1.72735 0 2.08199 0 2.46082V17.2265C0 17.6053 0.0931329 17.96 0.246641 18.2808L8.73847 9.84364L0.246641 1.40649Z" fill="white"/>
<path d="M18.1016 11.0037L16.9 12.2053C15.3009 13.8043 12.6991 13.8043 11.1001 12.2053L9.89847 11.0037L1.40664 19.4408C1.72749 19.5943 2.08214 19.6874 2.46096 19.6874H25.5391C25.9179 19.6874 26.2726 19.5943 26.5934 19.4408L18.1016 11.0037Z" fill="white"/>
</svg>
